<?xml version="1.0" encoding="utf-8"?>
<svg xmlns="http://www.w3.org/2000/svg">
  
 
<symbol id="icon-logo1" viewBox="0 0 346 32">
<path fill="#fbfbfb" style="fill: var(--color1, #fbfbfb)" d="M91.12 7.085h-2.279c-0.703 0-1.273 0.558-1.273 1.248v2.233c0 0.689 0.57 1.248 1.273 1.248h2.279c0.703 0 1.273-0.559 1.273-1.248v-2.233c0-0.689-0.57-1.248-1.273-1.248z"></path>
<path fill="#fbfbfb" style="fill: var(--color1, #fbfbfb)" d="M78.416 20.001h-2.454c-0.757 0-1.371 0.558-1.371 1.248v2.233c0 0.689 0.614 1.248 1.371 1.248h2.454c0.757 0 1.371-0.558 1.371-1.248v-2.233c0-0.689-0.614-1.248-1.371-1.248z"></path>
<path fill="#fbfbfb" style="fill: var(--color1, #fbfbfb)" d="M78.143 13.489h-2.279c-0.703 0-1.273 0.558-1.273 1.248v2.233c0 0.689 0.57 1.248 1.273 1.248h2.279c0.703 0 1.273-0.558 1.273-1.248v-2.233c0-0.689-0.57-1.248-1.273-1.248z"></path>
<path fill="#fbfbfb" style="fill: var(--color1, #fbfbfb)" d="M84.688 19.966h-2.279c-0.703 0-1.273 0.558-1.273 1.248l-0 2.233c0 0.689 0.57 1.248 1.274 1.248h2.279c0.703 0 1.273-0.559 1.273-1.248v-2.233c0-0.689-0.57-1.248-1.273-1.248z"></path>
<path fill="#fbfbfb" style="fill: var(--color1, #fbfbfb)" d="M78.143 6.956h-2.279c-0.703 0-1.273 0.558-1.273 1.248v2.233c0 0.689 0.57 1.248 1.273 1.248h2.279c0.703 0 1.273-0.559 1.273-1.248v-2.233c0-0.689-0.57-1.248-1.273-1.248z"></path>
<path fill="#fbfbfb" style="fill: var(--color1, #fbfbfb)" d="M84.864 13.555h-2.279c-0.703 0-1.273 0.558-1.273 1.248v2.233c0 0.689 0.57 1.248 1.273 1.248h2.279c0.703 0 1.273-0.558 1.273-1.248v-2.233c0-0.689-0.57-1.248-1.273-1.248z"></path>
<path fill="#fbfbfb" style="fill: var(--color1, #fbfbfb)" d="M91.262 19.966h-2.279c-0.703 0-1.273 0.558-1.273 1.248v2.233c0 0.689 0.57 1.248 1.274 1.248h2.279c0.703 0 1.273-0.559 1.273-1.248v-2.233c0-0.689-0.57-1.248-1.273-1.248z"></path>
<path fill="#fbfbfb" style="fill: var(--color1, #fbfbfb)" d="M84.588 7.034h-2.279c-0.703 0-1.273 0.558-1.273 1.248v2.233c0 0.689 0.57 1.248 1.273 1.248h2.279c0.703 0 1.273-0.559 1.273-1.248v-2.233c0-0.689-0.57-1.248-1.273-1.248z"></path>
<path fill="#fbfbfb" style="fill: var(--color1, #fbfbfb)" d="M91.098 13.684h-2.279c-0.703 0-1.273 0.558-1.273 1.248v2.233c0 0.689 0.57 1.248 1.274 1.248h2.279c0.703 0 1.273-0.558 1.273-1.248v-2.233c0-0.689-0.57-1.248-1.273-1.248z"></path>
<path fill="#fbfbfb" style="fill: var(--color1, #fbfbfb)" d="M108.186 24.083c-4.404 0-7.326-2.97-7.326-7.598 0-4.526 2.88-7.558 7.221-7.558 3.652 0 6.219 2.081 6.595 5.214h-3.026c-0.292-1.798-1.69-2.809-3.569-2.809-2.63 0-4.195 2.061-4.195 5.153 0 3.395 1.753 5.193 4.3 5.193 2.212 0 3.632-1.213 3.778-3.031v-0.202h-4.070v-2.263h6.887v1.859c-0.125 3.617-2.755 6.042-6.595 6.042z"></path>
<path fill="#fbfbfb" style="fill: var(--color1, #fbfbfb)" d="M116.606 23.881v-14.751h7.326c3.736 0 5.218 1.758 5.218 4.304 0 2.283-1.67 3.374-3.611 3.638v0.061c1.252 0.303 1.816 0.97 2.338 2.283 0.668 1.657 0.772 3.638 1.628 4.345v0.121h-3.339c-0.709-0.687-0.877-2.849-1.252-4.163-0.376-1.354-1.189-1.516-2.713-1.516h-2.671v5.678h-2.922zM119.528 15.859h4.091c1.711 0 2.504-0.97 2.504-2.223 0-1.374-0.981-2.162-2.504-2.162h-4.091v4.385z"></path>
<path fill="#fbfbfb" style="fill: var(--color1, #fbfbfb)" d="M131.090 23.881v-14.751h10.414v2.344h-7.492v3.516h6.762v2.344h-6.762v4.143h7.597v2.404h-10.519z"></path>
<path fill="#fbfbfb" style="fill: var(--color1, #fbfbfb)" d="M143.637 23.881v-14.751h10.414v2.344h-7.492v3.516h6.762v2.344h-6.762v4.143h7.597v2.404h-10.519z"></path>
<path fill="#fbfbfb" style="fill: var(--color1, #fbfbfb)" d="M156.185 23.881v-14.751h3.548l5.051 8.143c1.544 2.465 1.732 3.273 1.732 3.273h0.063l-0.042-11.417h2.922v14.751h-3.569l-5.238-8.386c-1.189-1.899-1.502-3.051-1.502-3.051h-0.042v11.437h-2.922z"></path>
<path fill="#fbfbfb" style="fill: var(--color1, #fbfbfb)" d="M171.657 23.881v-2.991h3.047v2.991h-3.047z"></path>
<path fill="#fbfbfb" style="fill: var(--color1, #fbfbfb)" d="M176.899 23.881v-14.751h2.922v5.9h6.992v-5.9h2.922v14.751h-2.922v-6.507h-6.992v6.507h-2.922z"></path>
<path fill="#fbfbfb" style="fill: var(--color1, #fbfbfb)" d="M190.982 23.881l5.844-14.751h3.172l5.928 14.751h-3.131l-1.231-3.395h-6.325l-1.231 3.395h-3.026zM196.075 18.142h4.655l-1.357-3.638c-0.939-2.688-0.96-3.172-0.96-3.172h-0.042c0 0 0 0.485-0.939 3.172l-1.357 3.638z"></path>
<path fill="#fbfbfb" style="fill: var(--color1, #fbfbfb)" d="M207.17 23.881v-14.751h7.326c3.736 0 5.218 1.758 5.218 4.304 0 2.283-1.669 3.374-3.611 3.638v0.061c1.253 0.303 1.816 0.97 2.338 2.283 0.668 1.657 0.772 3.638 1.628 4.345v0.121h-3.339c-0.709-0.687-0.877-2.849-1.252-4.163-0.376-1.354-1.189-1.516-2.713-1.516h-2.672v5.678h-2.922zM210.092 15.859h4.091c1.711 0 2.504-0.97 2.504-2.223 0-1.374-0.981-2.162-2.504-2.162h-4.091v4.385z"></path>
<path fill="#fbfbfb" style="fill: var(--color1, #fbfbfb)" d="M224.752 23.881l-5.593-14.751h3.131c0 0 3.026 8.265 3.339 9.275 0.501 1.617 0.73 2.445 0.73 2.445h0.042c-0.021 0 0.209-0.828 0.73-2.445 0.335-1.010 3.235-9.275 3.235-9.275h3.026l-5.385 14.751h-3.255z"></path>
<path fill="#fbfbfb" style="fill: var(--color1, #fbfbfb)" d="M234.589 23.881v-14.751h10.415v2.344h-7.493v3.516h6.762v2.344h-6.762v4.143h7.598v2.404h-10.519z"></path>
<path fill="#fbfbfb" style="fill: var(--color1, #fbfbfb)" d="M252.362 24.083c-3.882 0-6.22-2.041-6.22-5.072h3.339c-0.042 1.718 1.128 2.668 2.881 2.668 1.857 0 2.733-0.707 2.733-1.758s-0.751-1.495-3.423-2.202c-2.441-0.647-5.113-1.415-5.113-4.445 0-2.405 2.171-4.345 5.593-4.345 3.528 0 5.782 1.92 5.782 4.627h-3.235c-0.021-1.435-1.022-2.223-2.546-2.223-1.481 0-2.462 0.727-2.462 1.697 0 1.152 0.814 1.516 2.942 2.101 3.152 0.849 5.698 1.192 5.698 4.486 0 2.647-2.483 4.466-5.969 4.466z"></path>
<path fill="#fbfbfb" style="fill: var(--color1, #fbfbfb)" d="M263.088 23.881v-12.347h-4.612v-2.405h12.126v2.405h-4.592v12.347h-2.922z"></path>
</symbol>

 <symbol id="icon-favicon" viewBox="0 0 32 32">
<path fill="#fbfbfb" style="fill: var(--color1, #fbfbfb)" d="M29.082 0.314h-4.010c-1.237 0-2.24 0.983-2.24 2.195v3.929c0 1.212 1.003 2.195 2.24 2.195h4.010c1.237 0 2.24-0.983 2.24-2.195v-3.929c0-1.212-1.003-2.195-2.24-2.195z"></path>
<path fill="#fbfbfb" style="fill: var(--color1, #fbfbfb)" d="M6.73 23.040h-4.318c-1.332 0-2.412 0.983-2.412 2.195v3.929c0 1.212 1.080 2.195 2.412 2.195h4.318c1.332 0 2.412-0.983 2.412-2.195v-3.929c0-1.212-1.080-2.195-2.412-2.195z"></path>
<path fill="#fbfbfb" style="fill: var(--color1, #fbfbfb)" d="M6.25 11.582h-4.009c-1.237 0-2.24 0.983-2.24 2.195v3.929c0 1.212 1.003 2.195 2.24 2.195h4.009c1.237 0 2.24-0.983 2.24-2.195v-3.929c0-1.212-1.003-2.195-2.24-2.195z"></path>
<path fill="#fbfbfb" style="fill: var(--color1, #fbfbfb)" d="M17.766 22.978h-4.009c-1.237 0-2.24 0.983-2.24 2.195l-0 3.929c0 1.212 1.003 2.196 2.241 2.196h4.009c1.237 0 2.24-0.983 2.24-2.196v-3.929c0-1.212-1.003-2.195-2.24-2.195z"></path>
<path fill="#fbfbfb" style="fill: var(--color1, #fbfbfb)" d="M6.25 0.086h-4.009c-1.237 0-2.24 0.983-2.24 2.195v3.929c0 1.212 1.003 2.195 2.24 2.195h4.009c1.237 0 2.24-0.983 2.24-2.195v-3.929c0-1.212-1.003-2.195-2.24-2.195z"></path>
<path fill="#fbfbfb" style="fill: var(--color1, #fbfbfb)" d="M18.076 11.697h-4.009c-1.237 0-2.24 0.983-2.24 2.195v3.929c0 1.212 1.003 2.195 2.24 2.195h4.009c1.237 0 2.24-0.983 2.24-2.195v-3.929c0-1.212-1.003-2.195-2.24-2.195z"></path>
<path fill="#fbfbfb" style="fill: var(--color1, #fbfbfb)" d="M29.333 22.978h-4.009c-1.237 0-2.24 0.983-2.24 2.195v3.929c0 1.212 1.003 2.196 2.24 2.196h4.009c1.237 0 2.24-0.983 2.24-2.196v-3.929c0-1.212-1.003-2.195-2.24-2.195z"></path>
<path fill="#fbfbfb" style="fill: var(--color1, #fbfbfb)" d="M17.591 0.224h-4.009c-1.237 0-2.24 0.983-2.24 2.195v3.929c0 1.212 1.003 2.195 2.24 2.195h4.009c1.237 0 2.24-0.984 2.24-2.196v-3.929c0-1.212-1.003-2.195-2.24-2.195z"></path>
<path fill="#fbfbfb" style="fill: var(--color1, #fbfbfb)" d="M29.044 11.926h-4.009c-1.237 0-2.24 0.983-2.24 2.195v3.929c0 1.212 1.003 2.195 2.24 2.195h4.009c1.237 0 2.24-0.983 2.24-2.195v-3.929c0-1.212-1.003-2.195-2.24-2.195z"></path>
</symbol>

<symbol id="icon-close" viewBox="0 0 32 32">
<path fill="none" stroke="#fbfbfb" style="stroke: var(--color1, #fbfbfb)" stroke-linejoin="round" stroke-linecap="round" stroke-miterlimit="4" stroke-width="3.2" d="M24 8l-16 16"></path>
<path fill="none" stroke="#fbfbfb" style="stroke: var(--color1, #fbfbfb)" stroke-linejoin="round" stroke-linecap="round" stroke-miterlimit="4" stroke-width="3.2" d="M8 8l16 16"></path>
</symbol>

<symbol id="icon-burger" viewBox="0 0 32 32">
<path fill="none" stroke="#fbfbfb" style="stroke: var(--color1, #fbfbfb)" stroke-linejoin="round" stroke-linecap="round" stroke-miterlimit="4" stroke-width="3.2" d="M5.333 8h21.333M5.333 16h10.667M5.333 24h21.333"></path>
</symbol>
</svg>
