<?xml version="1.0" encoding="utf-8"?>
<svg xmlns="http://www.w3.org/2000/svg">
  
 
  <symbol id="icon-burger" viewBox="0 0 32 32">
    <path fill="none" stroke="#fbfbfb" stroke-linejoin="round" stroke-linecap="round" stroke-miterlimit="4" stroke-width="3.2" d="M5.333 8h21.333M5.333 16h10.667M5.333 24h21.333"/>
  </symbol>

 
  <symbol id="icon-close" viewBox="0 0 32 32">
    <path fill="none" stroke="#fbfbfb" stroke-linejoin="round" stroke-linecap="round" stroke-miterlimit="4" stroke-width="3.2" d="M24 8l-16 16"/>
    <path fill="none" stroke="#fbfbfb" stroke-linejoin="round" stroke-linecap="round" stroke-miterlimit="4" stroke-width="3.2" d="M8 8l16 16"/>
  </symbol>


  <symbol id="icon-favicon" viewBox="0 0 32 32">
    <path fill="#fbfbfb" d="M29.082 0.314h-4.010c-1.237 0-2.24 0.983-2.24 2.195v3.929c0 1.212 1.003 2.195 2.24 2.195h4.010c1.237 0 2.24-0.983 2.24-2.195v-3.929c0-1.212-1.003-2.195-2.24-2.195z"/>
  </symbol>

 
  <symbol id="icon-logo" viewBox="0 0 32 32">
    <path fill="#fbfbfb" d="M29.082 0.314h-4.010c-1.237 0-2.24 0.983-2.24 2.195v3.929c0 1.212 1.003 2.195 2.24 2.195h4.010c1.237 0 2.24-0.983 2.24-2.195v-3.929c0-1.212-1.003-2.195-2.24-2.195z"/>
  </symbol>

</svg>
